<svg width="120" height="120" viewBox="0 0 120 120" fill="none" xmlns="http://www.w3.org/2000/svg">
  <rect width="120" height="120" rx="28" fill="#F7F0E4"/>
  <path d="M76 18C62 16 50 22 44 36C39 48 42 62 52 72C62 83 78 86 92 80C98 76 102 70 104 62C106 52 100 41 92 34C86 28 81 24 76 18Z" fill="#FF8D3A"/>
  <path d="M56 28C44 30 34 38 30 50C26 62 30 76 40 84C50 92 66 94 78 90C88 86 96 78 98 66C100 56 96 46 88 40C80 34 70 30 56 28Z" fill="#C8FF76"/>
  <path d="M54 20C56 12 62 8 70 8C76 8 82 10 88 16C80 18 74 22 68 28C62 34 58 42 56 50C50 42 48 32 54 20Z" fill="#1E4D3F"/>
  <path d="M40 66C46 62 52 60 60 60C68 60 76 62 82 66C72 72 60 76 48 76C44 76 42 74 40 66Z" fill="#0E1A14" opacity="0.6"/>
</svg>
